<svg width="96" height="96" viewBox="0 0 96 96" fill="none" xmlns="http://www.w3.org/2000/svg" role="img" aria-label="Féria 出攤筆記 logo">
  <path d="M48 11V34" stroke="#24381F" stroke-width="2.6" stroke-linecap="round"/>
  <circle cx="48" cy="10" r="2.1" fill="#24381F"/>
  <path d="M48 14L65.5 19.5L48 25V14Z" fill="#B7A68F"/>

  <path d="M48 34C40.5 36.5 29.5 42.3 18.7 50.5C15.5 52.9 11.1 52.2 9.7 49.2C8.8 47.2 9.8 45.1 12.1 43.6C22.2 37.3 35.3 33.8 48 34Z" fill="#24381F"/>
  <path d="M48 34C42 39.4 38.7 47.1 35.2 57.1C34 60.6 29.5 60.9 27.6 58.2C26.7 56.9 26.6 55.3 27.2 53.9C31.6 44 38 37.3 48 34Z" fill="#24381F"/>
  <path d="M48 34C54 39.4 57.3 47.1 60.8 57.1C62 60.6 66.5 60.9 68.4 58.2C69.3 56.9 69.4 55.3 68.8 53.9C64.4 44 58 37.3 48 34Z" fill="#24381F"/>
  <path d="M48 34C55.5 36.5 66.5 42.3 77.3 50.5C80.5 52.9 84.9 52.2 86.3 49.2C87.2 47.2 86.2 45.1 83.9 43.6C73.8 37.3 60.7 33.8 48 34Z" fill="#24381F"/>

  <path d="M19.5 50V86" stroke="#24381F" stroke-width="2.8" stroke-linecap="round"/>
  <path d="M19.5 57H27" stroke="#24381F" stroke-width="2.8" stroke-linecap="round"/>
  <path d="M19.5 67H27" stroke="#24381F" stroke-width="2.8" stroke-linecap="round"/>
  <path d="M19.5 77H27" stroke="#24381F" stroke-width="2.8" stroke-linecap="round"/>
  <circle cx="29.2" cy="57" r="2.1" fill="#24381F"/>
  <circle cx="29.2" cy="67" r="2.1" fill="#24381F"/>
  <circle cx="29.2" cy="77" r="2.1" fill="#24381F"/>

  <path d="M42 57H76" stroke="#A89580" stroke-width="2.4" stroke-linecap="round"/>
  <path d="M42 67H76" stroke="#A89580" stroke-width="2.4" stroke-linecap="round"/>
  <path d="M42 77H76" stroke="#A89580" stroke-width="2.4" stroke-linecap="round"/>
  <path d="M42 86H70" stroke="#A89580" stroke-width="2.4" stroke-linecap="round"/>
</svg>
