<svg width="96" height="96" viewBox="0 0 96 96" fill="none" xmlns="http://www.w3.org/2000/svg">
  <rect x="10" y="10" width="76" height="76" rx="22" fill="#FFFDF7" stroke="#E2D6C7" stroke-width="2"/>
  <path d="M29 25H67L71 34H25L29 25Z" fill="#24381F"/>
  <path d="M25 34C25 39 29 42 33 42C37 42 40 39 40 34H25Z" fill="#24381F"/>
  <path d="M40 34C40 39 43 42 47 42C51 42 54 39 54 34H40Z" fill="#A89580"/>
  <path d="M54 34C54 39 57 42 61 42C65 42 69 39 71 34H54Z" fill="#24381F"/>
  <path d="M34 45V71" stroke="#24381F" stroke-width="7" stroke-linecap="round"/>
  <path d="M34 48H54" stroke="#24381F" stroke-width="7" stroke-linecap="round"/>
  <path d="M34 58H50" stroke="#24381F" stroke-width="7" stroke-linecap="round"/>
  <path d="M55 52H70" stroke="#A89580" stroke-width="2.5" stroke-linecap="round"/>
  <path d="M55 61H70" stroke="#A89580" stroke-width="2.5" stroke-linecap="round"/>
  <path d="M55 70H67" stroke="#A89580" stroke-width="2.5" stroke-linecap="round"/>
</svg>
